<?xml version="1.0" encoding="UTF-8"?><svg xmlns="http://www.w3.org/2000/svg" xmlns:xlink="http://www.w3.org/1999/xlink"><symbol viewBox="0 0 22 30" id="arrow-down" xmlns="http://www.w3.org/2000/svg"><path fill="#FF0062" d="M11.466 30L22 18.686l-2.434-2.828-6.019 6.486V0H9.63v22.344l-6.69-6.486L0 18.686z" fill-rule="evenodd"/></symbol><symbol viewBox="0 0 40 22" id="arrow-right" xmlns="http://www.w3.org/2000/svg"><path d="M40 10.534L28.686 0l-2.828 2.434 6.486 6.019H0v3.917h32.344l-6.486 6.69L28.686 22z"/></symbol><symbol viewBox="0 0 23 14" id="chevron-down" xmlns="http://www.w3.org/2000/svg"><path fill="#FF0062" d="M11.5 14L0 2.8 2.875 0 11.5 8.4 20.125 0 23 2.8z" fill-rule="evenodd"/></symbol><symbol viewBox="0 0 14 14" id="close" xmlns="http://www.w3.org/2000/svg"><circle cx="7" cy="7" r="7"/><path d="M7.807 6.95L9.95 9.093l-.857.857L6.95 7.807 4.807 9.95l-.857-.857L6.093 6.95 3.95 4.807l.857-.857L6.95 6.093 9.093 3.95l.857.857L7.807 6.95z" fill="#FFF"/></symbol><symbol viewBox="0 0 30 26" id="hamburger" xmlns="http://www.w3.org/2000/svg"><path d="M0 0h30v4H0V0zm0 11h30v4H0v-4zm0 11h18v4H0v-4z" fill="#FF0062" fill-rule="evenodd"/></symbol><symbol viewBox="0 0 96 83" id="quotetastic" xmlns="http://www.w3.org/2000/svg"><path d="M54.433 51.838c0-14.966 3.573-26.682 10.72-35.15C72.3 8.222 82.339 2.659 95.27 0v15.36c-9.82 3.052-16.433 8.565-19.836 16.54-1.944 4.234-2.722 8.32-2.333 12.258H96V83H54.433V51.838zM0 51.838C0 37.07 3.476 25.402 10.428 16.836 17.38 8.27 27.517 2.658 40.838 0v15.36c-9.918 3.15-16.578 8.565-19.982 16.245-1.75 4.037-2.479 8.221-2.187 12.553h22.898V83H0V51.838z"/></symbol><symbol viewBox="0 0 209 42" id="rawnet" xmlns="http://www.w3.org/2000/svg"><g fill="none" fill-rule="evenodd"><path d="M40.27 42.062h-2.595l2.594-2.699v2.7zM0 .128h2.586L0 2.818V.129zm9.463 8.533L5.968 5.098 0 11.31V7.442l5.949-6.19 3.495 3.562L13.947.128h3.717l-8.2 8.533zm21.341 24.861l3.496 3.563 5.97-6.21v3.866l-5.95 6.192-3.497-3.565-4.51 4.694h-3.716l8.207-8.54zm-.04-8.446l3.495 3.563 6.01-6.254v3.866l-5.991 6.234-3.496-3.563-12.627 13.14H14.44l16.324-16.986zm-21.26-7.968l-3.495-3.563L0 19.797v-3.866l5.99-6.233 3.495 3.564L22.105.128h3.717L9.503 17.108zM9.607 38.6l21.115-21.97 3.495 3.564 6.051-6.297v3.866l-6.033 6.278-3.495-3.564L9.995 42.062H9.25l-3.118-3.178-3.055 3.178H0V41.4l6.113-6.362L9.608 38.6zM37.188.128h3.081v.658L34.154 7.15l-3.496-3.565L9.545 25.553 6.051 21.99 0 28.286V24.42l6.032-6.275 3.494 3.562L30.266.128h.755l3.115 3.176L37.188.128zM30.68 8.185l3.496 3.564 6.092-6.34v3.865l-6.073 6.32-3.496-3.562L9.586 34l-3.495-3.563L0 36.776v-3.868l6.073-6.317 3.494 3.562L30.681 8.185zm27.048 7.495c-.177 0-.362.008-.555.026-1.03.093-2.157.665-3.016 1.527-.602.6-1.335 1.627-1.431 3.125-.15 2.341 1.112 3.87 2.334 5.348l.149.18c2.272 2.754 5.088 5.574 7.672 8.061 2.59-2.59 5.26-5.268 7.558-8.06l.087-.106c.826-1.005 1.679-2.046 2.084-3.07.596-1.516.478-3.106-.335-4.476-.84-1.42-2.326-2.412-3.787-2.528-2.356-.187-3.375 1.016-4.56 2.436l-1.209 1.44-.972-1.352c-1.188-1.655-2.181-2.55-4.019-2.55zm5.194 22.02l-.91-.869c-2.872-2.74-6.164-5.972-8.796-9.163l-.148-.178c-1.344-1.627-3.185-3.856-2.963-7.315a7.64 7.64 0 012.232-4.913c1.294-1.3 2.974-2.133 4.607-2.28 2.972-.28 4.766 1.057 5.905 2.331 1.226-1.298 2.932-2.568 5.84-2.333 2.305.184 4.535 1.647 5.821 3.818 1.266 2.135 1.453 4.604.53 6.952-.566 1.43-1.603 2.693-2.518 3.808l-.088.108c-2.415 2.933-5.301 5.82-7.848 8.367L62.923 37.7zm-20.195 4.233v-4.064a91.986 91.986 0 003.767 4.173H42.83l-.102-.11zm40.099.11h-3.65a97.223 97.223 0 003.82-4.274v4.086l-.17.187zM42.74.107h4.923a22.675 22.675 0 00-4.935 3.56V.118c.004-.005.008-.007.012-.01zm40.155 0c.033.027.07.052.102.079v3.561a22.877 22.877 0 00-5.003-3.64h4.9zm-3.765 33.24l.082-.097c1.08-1.315 2.679-3.278 3.785-5.86v5.333a42.303 42.303 0 01-1.792 2.307l-.083.101c-2.035 2.472-4.228 4.78-6.326 6.91h-3.78c2.609-2.608 5.512-5.533 8.114-8.694zm-32.59.027c2.513 3.046 5.466 6.03 8.194 8.667h-3.83c-2.172-2.163-4.387-4.498-6.356-6.885l-.142-.173a35.707 35.707 0 01-1.678-2.158v-5.379c1.165 2.717 2.754 4.646 3.668 5.753l.145.175zM69.576.85c5.172.414 10.144 3.268 13.422 7.596v5.236a17.62 17.62 0 00-.994-1.959c-2.737-4.62-7.576-7.741-12.63-8.146-.45-.036-.91-.055-1.37-.055-1.654 0-3.252.246-4.748.73l-.393.13-.39-.13c-1.5-.49-3.096-.738-4.741-.738-.524 0-1.047.024-1.555.073-3.6.328-7.22 2.076-9.929 4.795a16.814 16.814 0 00-3.519 5.164V8.35c.521-.68 1.087-1.329 1.698-1.94C47.56 3.267 51.76 1.244 55.944.862A19.173 19.173 0 0157.731.78c1.77 0 3.497.25 5.134.74a17.97 17.97 0 015.138-.732c.529 0 1.057.02 1.572.062zm-2.85 37.238c2.604-2.606 5.545-5.547 8.058-8.6l.085-.103c1.018-1.24 2.276-2.774 3.03-4.682 1.289-3.274 1.011-6.868-.758-9.856-1.795-3.032-4.941-5.076-8.21-5.337-.323-.026-.63-.038-.927-.038-1.655 0-3.184.37-4.542 1.1l-.602.323-.603-.323c-1.366-.735-2.89-1.107-4.525-1.107-.354 0-.71.016-1.054.048-2.323.212-4.682 1.365-6.475 3.162a10.896 10.896 0 00-3.175 7.02c-.308 4.775 2.203 7.814 3.704 9.63l.14.169c2.74 3.32 6.115 6.638 9.056 9.444l3.047 2.908 3.75-3.758zm10.05-6.817c-2.595 3.151-5.582 6.141-8.22 8.779l-1.99 1.992h-7.271l-1.14-1.089c-3-2.86-6.445-6.248-9.272-9.675l-.14-.166c-1.532-1.855-4.716-5.708-4.336-11.598a13.685 13.685 0 013.976-8.811c2.216-2.222 5.155-3.648 8.062-3.914.421-.039.854-.059 1.287-.059 1.825 0 3.546.373 5.129 1.11 1.574-.732 3.302-1.103 5.143-1.103.378 0 .76.016 1.131.046 4.087.326 8.013 2.866 10.24 6.628 2.217 3.742 2.564 8.235.953 12.331-.914 2.313-2.323 4.032-3.456 5.413l-.097.116z" fill="#FF0062"/><path d="M98.156 12.59v6.96h6.135c1.219 0 2.133-.14 2.742-.421 1.078-.492 1.617-1.465 1.617-2.918 0-1.57-.521-2.625-1.564-3.164-.586-.305-1.465-.457-2.637-.457h-6.293zm7.418-4.5c1.817.035 3.214.258 4.193.668a6.55 6.55 0 012.487 1.81 8.022 8.022 0 011.336 2.18c.328.797.492 1.705.492 2.725 0 1.23-.31 2.44-.932 3.63-.62 1.189-1.646 2.03-3.076 2.522 1.196.48 2.042 1.163 2.54 2.048.498.885.747 2.235.747 4.052v1.74c0 1.183.047 1.986.141 2.408.14.668.469 1.16.984 1.477V34h-5.959a18.587 18.587 0 01-.351-1.389c-.14-.726-.217-1.47-.229-2.232l-.035-2.408c-.023-1.653-.325-2.754-.905-3.305-.58-.55-1.667-.826-3.26-.826h-5.59V34h-5.292V8.09h12.71zm21.655 16.594c-.316.199-.636.36-.958.483-.322.123-.765.237-1.327.343l-1.125.21c-1.055.188-1.81.417-2.268.686-.773.457-1.16 1.166-1.16 2.127 0 .856.237 1.474.712 1.855.475.38 1.052.571 1.731.571a5.102 5.102 0 002.98-.95c.908-.632 1.38-1.786 1.415-3.462v-1.863zm-3.041-2.338c.926-.117 1.588-.264 1.986-.44.715-.304 1.073-.779 1.073-1.424 0-.785-.273-1.327-.818-1.626-.545-.298-1.345-.448-2.4-.448-1.183 0-2.02.293-2.513.88-.351.433-.586 1.019-.703 1.757h-4.834c.105-1.676.574-3.053 1.406-4.13 1.324-1.688 3.598-2.532 6.82-2.532 2.098 0 3.961.416 5.59 1.248 1.63.832 2.444 2.402 2.444 4.71v8.79c0 .61.011 1.348.035 2.215.035.656.135 1.101.299 1.336.164.234.41.427.738.58V34h-5.45a5.58 5.58 0 01-.316-1.09 13.14 13.14 0 01-.14-1.16 10.293 10.293 0 01-2.39 1.916c-1.079.621-2.298.932-3.657.932-1.735 0-3.167-.495-4.298-1.486-1.13-.99-1.696-2.393-1.696-4.21 0-2.355.908-4.06 2.724-5.115.996-.574 2.461-.984 4.395-1.23l1.705-.211zm19.862-7.506h5.08l2.918 13.799 2.988-13.8h5.22L154.703 34h-5.15l-3.006-13.957L143.505 34h-5.203l-5.38-19.16h5.38l2.988 13.746 2.76-13.746zm27.912-.457c1.98 0 3.6.518 4.86 1.555 1.26 1.038 1.89 2.757 1.89 5.16V34h-5.133V22.346c0-1.008-.134-1.782-.404-2.32-.492-.985-1.43-1.477-2.812-1.477-1.7 0-2.866.72-3.498 2.162-.329.762-.493 1.734-.493 2.918V34h-4.992V14.875h4.834v2.795c.645-.984 1.254-1.693 1.828-2.127 1.032-.773 2.338-1.16 3.92-1.16zm17.26 4.078c-1.16 0-2.06.363-2.698 1.09-.638.726-1.04 1.71-1.204 2.953h7.787c-.082-1.324-.483-2.33-1.204-3.015-.72-.685-1.614-1.028-2.68-1.028zm0-4.13c1.594 0 3.03.298 4.307.896 1.277.597 2.332 1.54 3.164 2.83.75 1.136 1.237 2.455 1.46 3.955.128.879.18 2.144.157 3.797h-13.113c.07 1.921.674 3.27 1.81 4.043.692.48 1.524.72 2.497.72 1.031 0 1.869-.293 2.513-.879.352-.316.663-.755.932-1.318h5.115c-.129 1.137-.72 2.291-1.775 3.463-1.64 1.863-3.938 2.795-6.89 2.795-2.438 0-4.589-.785-6.452-2.356-1.863-1.57-2.795-4.125-2.795-7.664 0-3.316.841-5.86 2.523-7.629 1.681-1.77 3.864-2.654 6.547-2.654zm8.823 4.253v-3.568h2.672V9.672h4.957v5.344h3.111v3.568h-3.11v10.125c0 .785.099 1.274.298 1.468.2.193.809.29 1.828.29a14.058 14.058 0 00.984-.035v3.744l-2.373.088c-2.367.082-3.984-.328-4.851-1.23-.563-.575-.844-1.46-.844-2.655V18.584h-2.672z" fill="#000C36"/></g></symbol></svg>