<svg width="231" height="61" viewBox="0 0 231 61" fill="none" xmlns="http://www.w3.org/2000/svg">
<path d="M38.9773 0.454544H29.1818V29.7273H28.7727L8.68182 0.454544H0.0454545V47H9.88636V17.7045H10.2273L30.4773 47H38.9773V0.454544ZM62.8352 47.6818C71.4716 47.6818 77.2898 43.4773 78.6534 37L69.6989 36.4091C68.7216 39.0682 66.2216 40.4545 62.9943 40.4545C58.1534 40.4545 55.0852 37.25 55.0852 32.0455V32.0227H78.858V29.3636C78.858 17.5 71.6761 11.6364 62.4489 11.6364C52.1761 11.6364 45.517 18.9318 45.517 29.7045C45.517 40.7727 52.0852 47.6818 62.8352 47.6818ZM55.0852 26.0227C55.2898 22.0455 58.3125 18.8636 62.608 18.8636C66.8125 18.8636 69.7216 21.8636 69.7443 26.0227H55.0852ZM92.7045 12.0909H82.7045L92.7045 29.5455L82.3409 47H92.3409L99.1136 34.9318L106 47H115.886L105.5 29.5455L115.614 12.0909H105.682L99.1136 24.2955L92.7045 12.0909ZM135.778 60.5909C145.756 60.5909 152.847 56.0455 152.847 47.3409V12.0909H143.233V17.9545H142.869C141.574 15.1136 138.733 11.6364 132.892 11.6364C125.233 11.6364 118.756 17.5909 118.756 29.4773C118.756 41.0909 125.051 46.5 132.915 46.5C138.483 46.5 141.597 43.7045 142.869 40.8182H143.278V47.2045C143.278 51.7727 140.21 53.6364 136.006 53.6364C131.733 53.6364 129.574 51.7727 128.778 49.8864L119.824 51.0909C120.983 56.3636 126.369 60.5909 135.778 60.5909ZM135.983 39.2273C131.233 39.2273 128.642 35.4545 128.642 29.4318C128.642 23.5 131.188 19.3409 135.983 19.3409C140.688 19.3409 143.324 23.3182 143.324 29.4318C143.324 35.5909 140.642 39.2273 135.983 39.2273ZM170.233 0.454544H160.551V47H170.233V0.454544ZM193.898 47.6818C202.534 47.6818 208.352 43.4773 209.716 37L200.761 36.4091C199.784 39.0682 197.284 40.4545 194.057 40.4545C189.216 40.4545 186.148 37.25 186.148 32.0455V32.0227H209.92V29.3636C209.92 17.5 202.739 11.6364 193.511 11.6364C183.239 11.6364 176.58 18.9318 176.58 29.7045C176.58 40.7727 183.148 47.6818 193.898 47.6818ZM186.148 26.0227C186.352 22.0455 189.375 18.8636 193.67 18.8636C197.875 18.8636 200.784 21.8636 200.807 26.0227H186.148ZM212.801 39.794H215.473V47H217.297V39.794H219.969V38.2727H212.801V39.794ZM221.149 38.2727V47H222.939V41.2983H223.011L225.27 46.9574H226.489L228.747 41.3196H228.82V47H230.609V38.2727H228.334L225.93 44.1364H225.828L223.425 38.2727H221.149Z" fill="white"/>
</svg>
