<svg width="44" height="44" xmlns="http://www.w3.org/2000/svg"><g fill="none" fill-rule="evenodd"><rect fill="#0076B7" width="44" height="44" rx="22"/><path d="M11.397 33h4.974V16.967h-4.974V33zm2.487-18.223A2.888 2.888 0 0111 11.887a2.886 2.886 0 012.884-2.886 2.887 2.887 0 012.883 2.886 2.888 2.888 0 01-2.883 2.89zM30.029 33v-7.796c0-1.858-.034-4.25-2.584-4.25-2.588 0-2.984 2.026-2.984 4.117V33H19.49V16.967h4.771v2.19h.067c.663-1.26 2.285-2.588 4.705-2.588 5.037 0 5.967 3.32 5.967 7.636v8.793h-4.971z" fill="#FFF"/></g></svg>