<svg width="44" height="44" xmlns="http://www.w3.org/2000/svg"><g fill="none" fill-rule="evenodd"><rect fill="#00C027" width="44" height="44" rx="22"/><path d="M16.382 18.37c.293-1.271 2.716-1.015 2.673-2.226-.03-.404-1.002-5.988-1.893-6.065-3.822-.622-6.372 2.535-6.148 5.94.27 4.114 3.911 8.82 5.44 10.63 1.53 1.81 5.56 6.191 9.59 7.17 3.336.81 6.908-1.137 6.955-4.986.078-.885-5.286-2.806-5.682-2.905-1.192-.253-1.36 2.163-2.671 2.229-1.32.066-4.132-2.363-5.386-3.848-1.254-1.485-3.173-4.657-2.878-5.938z" fill="#FFF"/></g></svg>