<svg width="44" height="44" xmlns="http://www.w3.org/2000/svg"><g fill="none" fill-rule="evenodd"><rect fill="#93D228" width="44" height="44" rx="22"/><path d="M28.333 27.223c-.928 0-1.766.36-2.4.942l-8.71-5.08a3.58 3.58 0 00.11-.856c0-.293-.042-.58-.11-.855l8.617-5.03c.654.612 1.528.99 2.493.99A3.67 3.67 0 0032 13.669a3.669 3.669 0 00-3.667-3.667 3.669 3.669 0 00-3.666 3.667c0 .293.042.58.11.855l-8.617 5.03a3.645 3.645 0 00-2.493-.99A3.67 3.67 0 0010 22.228a3.67 3.67 0 003.667 3.667 3.64 3.64 0 002.493-.99l8.71 5.079a3.42 3.42 0 00-.1.8 3.56 3.56 0 003.563 3.562 3.561 3.561 0 100-7.124" fill="#FFF"/></g></svg>